<?xml version="1.0" encoding="UTF-8" standalone="no"?>
<!-- Created with Inkscape (http://www.inkscape.org/) -->

<svg
   xmlns:dc="http://purl.org/dc/elements/1.1/"
   xmlns:cc="http://creativecommons.org/ns#"
   xmlns:rdf="http://www.w3.org/1999/02/22-rdf-syntax-ns#"
   xmlns:svg="http://www.w3.org/2000/svg"
   xmlns="http://www.w3.org/2000/svg"
   xmlns:sodipodi="http://sodipodi.sourceforge.net/DTD/sodipodi-0.dtd"
   xmlns:inkscape="http://www.inkscape.org/namespaces/inkscape"
   width="264.58334mm"
   height="145.28612mm"
   viewBox="0 0 264.58334 145.28612"
   version="1.1"
   id="svg1783"
   inkscape:version="0.92.4 (5da689c313, 2019-01-14)"
   sodipodi:docname="Gandaria City.svg">
  <defs
     id="defs1777">
    <radialGradient
       fx="0"
       fy="0"
       cx="0"
       cy="0"
       r="1"
       gradientUnits="userSpaceOnUse"
       gradientTransform="matrix(16.901169,0,0,-24.00589,274.58601,596.65363)"
       spreadMethod="pad"
       id="radialGradient1700">
      <stop
         style="stop-opacity:1;stop-color:#00aeef"
         offset="0"
         id="stop1692" />
      <stop
         style="stop-opacity:1;stop-color:#00aeef"
         offset="0.181824"
         id="stop1694" />
      <stop
         style="stop-opacity:1;stop-color:#2e3192"
         offset="0.684845"
         id="stop1696" />
      <stop
         style="stop-opacity:1;stop-color:#2e3192"
         offset="1"
         id="stop1698" />
    </radialGradient>
    <clipPath
       clipPathUnits="userSpaceOnUse"
       id="clipPath1630">
      <path
         d="M 0,0 H 595.276 V 841.89 H 0 Z"
         id="path1628"
         inkscape:connector-curvature="0" />
    </clipPath>
  </defs>
  <sodipodi:namedview
     id="base"
     pagecolor="#ffffff"
     bordercolor="#666666"
     borderopacity="1.0"
     inkscape:pageopacity="0.0"
     inkscape:pageshadow="2"
     inkscape:zoom="1"
     inkscape:cx="632.0488"
     inkscape:cy="160.92081"
     inkscape:document-units="mm"
     inkscape:current-layer="layer1"
     showgrid="false"
     fit-margin-top="0"
     fit-margin-left="0"
     fit-margin-right="0"
     fit-margin-bottom="0"
     inkscape:window-width="1920"
     inkscape:window-height="1001"
     inkscape:window-x="-9"
     inkscape:window-y="-9"
     inkscape:window-maximized="1" />
  <metadata
     id="metadata1780">
    <rdf:RDF>
      <cc:Work
         rdf:about="">
        <dc:format>image/svg+xml</dc:format>
        <dc:type
           rdf:resource="http://purl.org/dc/dcmitype/StillImage" />
        <dc:title></dc:title>
      </cc:Work>
    </rdf:RDF>
  </metadata>
  <g
     inkscape:label="Layer 1"
     inkscape:groupmode="layer"
     id="layer1"
     transform="translate(393.22796,197.83088)">
    <g
       id="g2433"
       transform="matrix(4.2500865,0,0,4.2500865,1278.0251,170.77505)">
      <g
         id="g1626"
         clip-path="url(#clipPath1630)"
         transform="matrix(0.35277777,0,0,-0.35277777,-436.91742,145.05135)">
        <g
           id="g1632"
           transform="translate(146.495,650.973)">
          <path
             d="M 0,0 C -0.592,0.474 -1.252,0.889 -1.976,1.244 -2.7,1.6 -3.503,1.888 -4.383,2.112 c -0.883,0.226 -1.825,0.336 -2.825,0.336 -1.632,0 -3.153,-0.25 -4.561,-0.749 -1.408,-0.502 -2.635,-1.271 -3.675,-2.312 -1.039,-1.039 -1.855,-2.356 -2.447,-3.95 -0.593,-1.592 -0.889,-3.482 -0.889,-5.668 0,-1.92 0.264,-3.659 0.79,-5.212 0.527,-1.554 1.297,-2.863 2.31,-3.929 1.014,-1.066 2.252,-1.889 3.712,-2.469 1.462,-0.579 3.115,-0.869 4.957,-0.869 0.554,0 1.131,0.027 1.739,0.08 0.606,0.052 1.19,0.13 1.758,0.237 0.565,0.103 1.091,0.237 1.578,0.394 0.488,0.158 0.902,0.341 1.244,0.551 0.027,0.792 0.046,1.583 0.06,2.372 0.013,0.789 0.02,1.592 0.02,2.408 0,0.922 -0.02,1.844 -0.061,2.765 -0.038,0.923 -0.084,1.804 -0.137,2.647 0.657,-0.132 1.29,-0.197 1.895,-0.197 0.291,0 0.579,0.013 0.87,0.038 0.288,0.027 0.566,0.08 0.829,0.159 -0.053,-0.606 -0.092,-1.56 -0.118,-2.863 -0.027,-1.303 -0.039,-3.023 -0.039,-5.153 0,-0.528 0.004,-1.063 0.02,-1.602 0.013,-0.539 0.019,-1.072 0.019,-1.599 -0.553,-0.21 -1.245,-0.428 -2.074,-0.652 -0.829,-0.224 -1.712,-0.407 -2.647,-0.552 -0.934,-0.145 -1.868,-0.277 -2.802,-0.396 -0.937,-0.118 -1.785,-0.177 -2.547,-0.177 -2.345,0 -4.459,0.285 -6.341,0.848 -1.882,0.567 -3.481,1.443 -4.798,2.627 -1.317,1.185 -2.329,2.66 -3.04,4.424 -0.711,1.764 -1.068,3.805 -1.068,6.12 0,2.238 0.368,4.233 1.106,5.985 0.738,1.751 1.778,3.232 3.121,4.443 1.343,1.212 2.967,2.133 4.878,2.765 1.909,0.633 4.021,0.948 6.338,0.948 1.344,0 2.534,-0.073 3.575,-0.218 1.04,-0.145 1.961,-0.334 2.764,-0.571 C -0.067,2.884 0.638,2.632 1.244,2.37 1.85,2.106 2.388,1.856 2.864,1.619 2.652,1.25 2.461,0.776 2.291,0.197 2.119,-0.382 2.006,-0.923 1.955,-1.421 H 1.481 C 1.085,-0.948 0.592,-0.474 0,0"
             style="fill:#000000;fill-opacity:1;fill-rule:nonzero;stroke:none"
             id="path1634"
             inkscape:connector-curvature="0" />
        </g>
        <g
           id="g1636"
           transform="translate(158.8376,645.9164)">
          <path
             d="m 0,0 c 1.001,0.317 2.027,0.474 3.08,0.474 0.948,0 1.818,-0.138 2.611,-0.413 0.789,-0.277 1.465,-0.673 2.027,-1.185 0.56,-0.514 0.999,-1.133 1.32,-1.857 0.319,-0.724 0.48,-1.521 0.48,-2.39 0,-1.501 -0.027,-2.994 -0.079,-4.481 -0.053,-1.489 -0.078,-3.061 -0.078,-4.72 0,-0.317 0.006,-0.652 0.019,-1.007 0.014,-0.356 0.073,-0.671 0.178,-0.948 0.105,-0.277 0.256,-0.508 0.455,-0.692 0.197,-0.183 0.493,-0.277 0.886,-0.277 0.132,0 0.272,0.008 0.417,0.019 0.143,0.014 0.283,0.062 0.415,0.14 v -0.869 c -0.291,-0.133 -0.652,-0.237 -1.088,-0.315 -0.433,-0.079 -0.915,-0.119 -1.44,-0.119 -0.855,0 -1.51,0.215 -1.965,0.651 -0.453,0.434 -0.72,0.994 -0.801,1.678 -0.944,-0.948 -1.876,-1.645 -2.794,-2.093 -0.918,-0.446 -2.047,-0.67 -3.383,-0.67 -0.658,0 -1.302,0.091 -1.93,0.275 -0.631,0.185 -1.189,0.487 -1.672,0.909 -0.488,0.421 -0.881,0.927 -1.181,1.521 -0.304,0.593 -0.453,1.27 -0.453,2.034 0,1.58 0.491,2.803 1.475,3.672 0.984,0.87 2.343,1.449 4.074,1.74 1.416,0.236 2.524,0.439 3.325,0.61 0.801,0.171 1.391,0.349 1.771,0.534 0.381,0.183 0.61,0.401 0.688,0.652 0.08,0.25 0.121,0.573 0.121,0.967 0,0.659 -0.08,1.289 -0.237,1.895 -0.159,0.606 -0.409,1.133 -0.751,1.58 -0.342,0.447 -0.79,0.811 -1.344,1.087 -0.552,0.276 -1.223,0.413 -2.014,0.413 -1.053,0 -2.033,-0.237 -2.94,-0.71 -0.91,-0.472 -1.588,-1.132 -2.035,-1.974 h -0.434 v 2.054 C -2.093,-0.921 -1.002,-0.315 0,0 M 4.924,-9.241 C 4.334,-9.346 3.737,-9.459 3.136,-9.577 2.534,-9.696 1.938,-9.846 1.347,-10.03 c -0.589,-0.185 -1.114,-0.436 -1.571,-0.751 -0.46,-0.316 -0.825,-0.711 -1.102,-1.185 -0.275,-0.474 -0.411,-1.08 -0.411,-1.817 0,-1.238 0.354,-2.173 1.06,-2.803 0.707,-0.633 1.492,-0.948 2.358,-0.948 0.996,0 1.907,0.275 2.733,0.829 0.825,0.553 1.46,1.198 1.905,1.934 l 0.159,5.926 C 6.032,-9.004 5.515,-9.136 4.924,-9.241"
             style="fill:#000000;fill-opacity:1;fill-rule:nonzero;stroke:none"
             id="path1638"
             inkscape:connector-curvature="0" />
        </g>
        <g
           id="g1640"
           transform="translate(186.6813,642.817)">
          <path
             d="m 0,0 c -0.764,1.013 -1.818,1.521 -3.159,1.521 -1.844,0 -3.193,-0.566 -4.049,-1.699 -0.856,-1.133 -1.284,-2.725 -1.284,-4.779 v -3.357 c 0,-1.185 0.019,-2.429 0.059,-3.732 0.04,-1.303 0.124,-2.482 0.258,-3.535 -0.608,0.053 -1.2,0.08 -1.777,0.08 -0.581,0 -1.173,-0.027 -1.779,-0.08 0.132,1.053 0.218,2.232 0.258,3.535 0.04,1.303 0.059,2.547 0.059,3.732 v 4.108 c 0,1.184 -0.019,2.429 -0.059,3.732 -0.04,1.303 -0.126,2.52 -0.258,3.653 0.738,-0.131 1.33,-0.196 1.779,-0.196 0.208,0 0.44,0.019 0.69,0.059 0.25,0.038 0.546,0.084 0.888,0.137 C -8.452,2.126 -8.492,1.074 -8.492,0.021 h 0.08 c 0.738,1.131 1.624,2.006 2.652,2.625 1.031,0.617 2.259,0.929 3.686,0.929 0.74,0 1.485,-0.107 2.238,-0.315 C 0.917,3.048 1.597,2.687 2.205,2.173 2.812,1.659 3.307,0.961 3.691,0.08 c 0.382,-0.883 0.574,-2.008 0.574,-3.378 0,-1.131 -0.027,-2.297 -0.079,-3.495 -0.053,-1.198 -0.08,-2.469 -0.08,-3.811 v -2.568 c 0,-0.42 0.008,-0.836 0.021,-1.244 0.014,-0.409 0.033,-0.797 0.059,-1.165 -0.533,0.053 -1.093,0.08 -1.677,0.08 -0.562,0 -1.108,-0.027 -1.64,-0.08 0.051,1.368 0.111,2.778 0.178,4.227 0.065,1.446 0.099,2.935 0.099,4.463 v 2.408 C 1.146,-2.509 0.762,-1.013 0,0"
             style="fill:#000000;fill-opacity:1;fill-rule:nonzero;stroke:none"
             id="path1642"
             inkscape:connector-curvature="0" />
        </g>
        <g
           id="g1644"
           transform="translate(210.2613,630.9893)">
          <path
             d="m 0,0 c -0.213,-0.423 -0.495,-0.877 -0.851,-1.364 -0.355,-0.486 -0.802,-0.941 -1.343,-1.361 -0.539,-0.423 -1.177,-0.764 -1.915,-1.028 -0.737,-0.262 -1.593,-0.396 -2.566,-0.396 -1.001,0 -1.981,0.172 -2.943,0.514 -0.961,0.342 -1.817,0.902 -2.568,1.678 -0.749,0.778 -1.357,1.779 -1.815,3.002 -0.463,1.225 -0.692,2.692 -0.692,4.405 0,1.685 0.25,3.145 0.749,4.383 0.501,1.238 1.153,2.272 1.955,3.101 0.805,0.829 1.712,1.447 2.727,1.856 1.012,0.407 2.033,0.611 3.061,0.611 2.922,0 4.949,-1.316 6.082,-3.948 h 0.079 v 3.87 c 0,1.001 -0.008,2.009 -0.02,3.021 -0.015,1.015 -0.026,1.982 -0.04,2.905 -0.013,0.921 -0.026,1.79 -0.04,2.606 -0.014,0.816 -0.032,1.54 -0.059,2.171 0.317,-0.052 0.619,-0.098 0.907,-0.138 0.291,-0.039 0.581,-0.059 0.87,-0.059 0.29,0 0.573,0.02 0.85,0.059 0.275,0.04 0.585,0.086 0.929,0.138 C 3.277,25.185 3.21,23.966 3.158,22.372 3.105,20.78 3.059,19.023 3.021,17.1 2.981,15.178 2.948,13.204 2.922,11.177 2.895,9.149 2.883,7.292 2.883,5.606 2.883,3.791 2.895,2.157 2.922,0.711 2.948,-0.738 2.973,-2.226 3.001,-3.753 2.474,-3.7 1.96,-3.673 1.459,-3.673 0.986,-3.673 0.485,-3.7 -0.04,-3.753 L 0.078,0 Z m -10.724,1.303 c 0.329,-1.028 0.751,-1.849 1.265,-2.469 0.512,-0.619 1.099,-1.047 1.756,-1.284 0.657,-0.237 1.303,-0.355 1.936,-0.355 1.026,0 1.908,0.256 2.646,0.77 0.736,0.514 1.349,1.186 1.836,2.015 0.488,0.828 0.844,1.77 1.067,2.823 0.223,1.053 0.336,2.106 0.336,3.159 0,2.53 -0.489,4.458 -1.461,5.788 -0.976,1.328 -2.41,1.992 -4.306,1.992 -0.948,0 -1.772,-0.215 -2.469,-0.651 -0.697,-0.434 -1.276,-1.04 -1.737,-1.815 -0.462,-0.778 -0.804,-1.685 -1.028,-2.727 -0.223,-1.039 -0.334,-2.151 -0.334,-3.336 0,-1.581 0.164,-2.884 0.493,-3.91"
             style="fill:#000000;fill-opacity:1;fill-rule:nonzero;stroke:none"
             id="path1646"
             inkscape:connector-curvature="0" />
        </g>
        <g
           id="g1648"
           transform="translate(222.5032,645.9164)">
          <path
             d="m 0,0 c 1.002,0.317 2.027,0.474 3.08,0.474 0.948,0 1.818,-0.138 2.611,-0.413 0.789,-0.277 1.465,-0.673 2.027,-1.185 0.56,-0.514 1,-1.133 1.32,-1.857 0.32,-0.724 0.48,-1.521 0.48,-2.39 0,-1.501 -0.027,-2.994 -0.079,-4.481 -0.053,-1.489 -0.077,-3.061 -0.077,-4.72 0,-0.317 0.005,-0.652 0.019,-1.007 0.013,-0.356 0.072,-0.671 0.177,-0.948 0.105,-0.277 0.256,-0.508 0.455,-0.692 0.197,-0.183 0.493,-0.277 0.887,-0.277 0.131,0 0.271,0.008 0.416,0.019 0.143,0.014 0.283,0.062 0.415,0.14 v -0.869 c -0.291,-0.133 -0.652,-0.237 -1.088,-0.315 -0.433,-0.079 -0.915,-0.119 -1.44,-0.119 -0.854,0 -1.51,0.215 -1.965,0.651 -0.452,0.434 -0.72,0.994 -0.801,1.678 -0.943,-0.948 -1.876,-1.645 -2.793,-2.093 -0.919,-0.446 -2.048,-0.67 -3.384,-0.67 -0.658,0 -1.301,0.091 -1.93,0.275 -0.63,0.185 -1.188,0.487 -1.672,0.909 -0.488,0.421 -0.881,0.927 -1.181,1.521 -0.304,0.593 -0.453,1.27 -0.453,2.034 0,1.58 0.491,2.803 1.475,3.672 0.984,0.87 2.343,1.449 4.074,1.74 1.416,0.236 2.525,0.439 3.325,0.61 0.801,0.171 1.392,0.349 1.771,0.534 0.381,0.183 0.61,0.401 0.688,0.652 0.08,0.25 0.121,0.573 0.121,0.967 0,0.659 -0.08,1.289 -0.237,1.895 -0.159,0.606 -0.409,1.133 -0.751,1.58 -0.342,0.447 -0.789,0.811 -1.344,1.087 -0.551,0.276 -1.222,0.413 -2.013,0.413 -1.053,0 -2.033,-0.237 -2.941,-0.71 -0.91,-0.472 -1.588,-1.132 -2.035,-1.974 h -0.434 v 2.054 C -2.092,-0.921 -1.001,-0.315 0,0 M 4.924,-9.241 C 4.334,-9.346 3.737,-9.459 3.136,-9.577 2.534,-9.696 1.938,-9.846 1.347,-10.03 c -0.588,-0.185 -1.114,-0.436 -1.571,-0.751 -0.46,-0.316 -0.825,-0.711 -1.102,-1.185 -0.275,-0.474 -0.411,-1.08 -0.411,-1.817 0,-1.238 0.354,-2.173 1.06,-2.803 0.708,-0.633 1.493,-0.948 2.359,-0.948 0.996,0 1.907,0.275 2.732,0.829 0.826,0.553 1.46,1.198 1.905,1.934 l 0.159,5.926 C 6.032,-9.004 5.515,-9.136 4.924,-9.241"
             style="fill:#000000;fill-opacity:1;fill-rule:nonzero;stroke:none"
             id="path1650"
             inkscape:connector-curvature="0" />
        </g>
        <g
           id="g1652"
           transform="translate(246.8914,643.1929)">
          <path
             d="m 0,0 c -0.382,0.13 -0.77,0.197 -1.166,0.197 -0.63,0 -1.198,-0.146 -1.698,-0.434 -0.499,-0.291 -0.921,-0.678 -1.263,-1.165 -0.342,-0.488 -0.606,-1.067 -0.79,-1.74 -0.185,-0.67 -0.276,-1.387 -0.276,-2.151 v -4.343 c 0,-1.766 0.005,-3.115 0.019,-4.05 0.013,-0.934 0.058,-1.691 0.139,-2.271 -0.527,0.053 -1.055,0.08 -1.58,0.08 -0.58,0 -1.133,-0.027 -1.659,-0.08 0.078,0.895 0.124,2.113 0.138,3.655 0.013,1.54 0.019,3.428 0.019,5.665 v 1.266 c 0,1.026 -0.006,2.21 -0.019,3.554 -0.014,1.343 -0.06,2.883 -0.138,4.62 0.289,-0.053 0.566,-0.097 0.83,-0.137 0.263,-0.04 0.538,-0.059 0.829,-0.059 0.236,0 0.487,0.019 0.75,0.059 0.263,0.04 0.54,0.084 0.83,0.137 C -5.14,1.856 -5.199,1.106 -5.213,0.552 -5.226,0 -5.234,-0.528 -5.234,-1.028 l 0.081,-0.038 C -3.6,1.777 -1.863,3.199 0.059,3.199 0.296,3.199 0.5,3.186 0.673,3.159 0.843,3.134 1.061,3.067 1.322,2.962 1.192,2.646 1.112,2.165 1.086,1.519 1.061,0.875 1.047,0.289 1.047,-0.237 L 0.77,-0.435 C 0.638,-0.277 0.382,-0.132 0,0"
             style="fill:#000000;fill-opacity:1;fill-rule:nonzero;stroke:none"
             id="path1654"
             inkscape:connector-curvature="0" />
        </g>
        <g
           id="g1656"
           transform="translate(252.836,654.2894)">
          <path
             d="M 0,0 C 0.394,0.396 0.868,0.594 1.422,0.594 1.975,0.594 2.448,0.396 2.844,0 3.239,-0.393 3.436,-0.867 3.436,-1.421 3.436,-1.974 3.239,-2.448 2.844,-2.843 2.448,-3.237 1.975,-3.434 1.422,-3.434 c -0.554,0 -1.028,0.197 -1.422,0.591 -0.395,0.395 -0.592,0.869 -0.592,1.422 0,0.554 0.197,1.028 0.592,1.421 m -0.099,-11.946 c -0.04,1.303 -0.124,2.52 -0.256,3.653 0.735,-0.132 1.33,-0.197 1.777,-0.197 0.448,0 1.039,0.065 1.777,0.197 -0.132,-1.133 -0.218,-2.35 -0.256,-3.653 -0.04,-1.304 -0.059,-2.548 -0.059,-3.733 v -4.108 c 0,-1.185 0.019,-2.429 0.059,-3.732 0.038,-1.303 0.124,-2.48 0.256,-3.535 -0.605,0.054 -1.198,0.08 -1.777,0.08 -0.579,0 -1.171,-0.026 -1.777,-0.08 0.132,1.055 0.216,2.232 0.256,3.535 0.04,1.303 0.059,2.547 0.059,3.732 v 4.108 c 0,1.185 -0.019,2.429 -0.059,3.733"
             style="fill:#000000;fill-opacity:1;fill-rule:nonzero;stroke:none"
             id="path1658"
             inkscape:connector-curvature="0" />
        </g>
        <g
           id="g1660"
           transform="translate(266.3821,645.9164)">
          <path
             d="m 0,0 c 1.002,0.317 2.027,0.474 3.08,0.474 0.948,0 1.818,-0.138 2.611,-0.413 0.789,-0.277 1.465,-0.673 2.027,-1.185 0.56,-0.514 0.999,-1.133 1.32,-1.857 0.32,-0.724 0.48,-1.521 0.48,-2.39 0,-1.501 -0.027,-2.994 -0.079,-4.481 -0.053,-1.489 -0.078,-3.061 -0.078,-4.72 0,-0.317 0.006,-0.652 0.02,-1.007 0.013,-0.356 0.072,-0.671 0.177,-0.948 0.105,-0.277 0.256,-0.508 0.455,-0.692 0.197,-0.183 0.493,-0.277 0.887,-0.277 0.131,0 0.27,0.008 0.416,0.019 0.143,0.014 0.283,0.062 0.415,0.14 v -0.869 c -0.291,-0.133 -0.652,-0.237 -1.088,-0.315 -0.433,-0.079 -0.915,-0.119 -1.44,-0.119 -0.855,0 -1.51,0.215 -1.965,0.651 -0.453,0.434 -0.72,0.994 -0.8,1.678 -0.945,-0.948 -1.877,-1.645 -2.794,-2.093 -0.919,-0.446 -2.048,-0.67 -3.384,-0.67 -0.658,0 -1.301,0.091 -1.93,0.275 -0.63,0.185 -1.188,0.487 -1.672,0.909 -0.488,0.421 -0.881,0.927 -1.181,1.521 -0.304,0.593 -0.453,1.27 -0.453,2.034 0,1.58 0.491,2.803 1.475,3.672 0.985,0.87 2.343,1.449 4.074,1.74 1.416,0.236 2.524,0.439 3.325,0.61 0.801,0.171 1.391,0.349 1.771,0.534 0.381,0.183 0.61,0.401 0.688,0.652 0.081,0.25 0.121,0.573 0.121,0.967 0,0.659 -0.08,1.289 -0.237,1.895 -0.159,0.606 -0.409,1.133 -0.751,1.58 -0.342,0.447 -0.79,0.811 -1.344,1.087 -0.552,0.276 -1.222,0.413 -2.013,0.413 -1.053,0 -2.033,-0.237 -2.941,-0.71 -0.91,-0.472 -1.588,-1.132 -2.035,-1.974 h -0.434 v 2.054 C -2.093,-0.921 -1.001,-0.315 0,0 M 4.924,-9.241 C 4.334,-9.346 3.737,-9.459 3.135,-9.577 2.534,-9.696 1.937,-9.846 1.347,-10.03 c -0.588,-0.185 -1.114,-0.436 -1.571,-0.751 -0.46,-0.316 -0.825,-0.711 -1.102,-1.185 -0.275,-0.474 -0.411,-1.08 -0.411,-1.817 0,-1.238 0.354,-2.173 1.06,-2.803 0.708,-0.633 1.493,-0.948 2.359,-0.948 0.995,0 1.907,0.275 2.732,0.829 0.825,0.553 1.46,1.198 1.905,1.934 l 0.159,5.926 C 6.032,-9.004 5.515,-9.136 4.924,-9.241"
             style="fill:#000000;fill-opacity:1;fill-rule:nonzero;stroke:none"
             id="path1662"
             inkscape:connector-curvature="0" />
        </g>
        <g
           id="g1664"
           transform="translate(209.7959,586.756)">
          <path
             d="M 0,0 C -0.653,-0.318 -1.436,-0.602 -2.356,-0.854 -3.278,-1.104 -4.304,-1.329 -5.44,-1.529 -6.578,-1.73 -7.764,-1.83 -9.002,-1.83 c -2.64,0 -5.084,0.377 -7.324,1.127 -2.239,0.754 -4.17,1.899 -5.791,3.435 -1.62,1.539 -2.892,3.419 -3.812,5.645 -0.92,2.221 -1.378,4.755 -1.378,7.596 0,2.842 0.458,5.375 1.378,7.598 0.92,2.222 2.209,4.105 3.863,5.643 1.654,1.536 3.635,2.708 5.942,3.51 2.308,0.802 4.849,1.203 7.624,1.203 2.206,0 4.22,-0.223 6.042,-0.674 1.823,-0.452 3.436,-0.998 4.841,-1.631 -0.267,-0.471 -0.485,-1.104 -0.653,-1.908 -0.167,-0.8 -0.3,-1.47 -0.4,-2.006 l -0.301,-0.1 c -0.335,0.4 -0.803,0.852 -1.405,1.357 -0.602,0.5 -1.303,0.984 -2.106,1.453 -0.803,0.468 -1.706,0.859 -2.708,1.177 -1.002,0.318 -2.106,0.478 -3.31,0.478 -1.972,0 -3.804,-0.321 -5.493,-0.953 -1.687,-0.636 -3.157,-1.615 -4.411,-2.934 -1.255,-1.323 -2.233,-2.992 -2.934,-5.016 -0.704,-2.024 -1.056,-4.421 -1.056,-7.197 0,-2.776 0.352,-5.173 1.056,-7.196 0.701,-2.024 1.679,-3.696 2.934,-5.016 1.254,-1.32 2.724,-2.298 4.411,-2.933 1.689,-0.636 3.521,-0.955 5.493,-0.955 1.204,0 2.315,0.151 3.334,0.452 1.022,0.301 1.956,0.66 2.81,1.08 0.852,0.417 1.621,0.868 2.305,1.354 0.686,0.483 1.264,0.91 1.73,1.278 L 1.881,3.836 1.43,0.878 C 1.129,0.609 0.653,0.318 0,0"
             style="fill:#000000;fill-opacity:1;fill-rule:nonzero;stroke:none"
             id="path1666"
             inkscape:connector-curvature="0" />
        </g>
        <g
           id="g1668"
           transform="translate(218.999,619.9298)">
          <path
             d="M 0,0 C 0.5,0.503 1.102,0.755 1.806,0.755 2.506,0.755 3.108,0.503 3.61,0 4.112,-0.499 4.363,-1.101 4.363,-1.805 4.363,-2.506 4.112,-3.108 3.61,-3.61 3.108,-4.11 2.506,-4.359 1.806,-4.359 1.102,-4.359 0.5,-4.11 0,-3.61 c -0.502,0.502 -0.752,1.104 -0.752,1.805 0,0.704 0.25,1.306 0.752,1.805 m -0.127,-15.169 c -0.05,1.654 -0.157,3.2 -0.324,4.639 0.934,-0.168 1.688,-0.25 2.257,-0.25 0.567,0 1.319,0.082 2.256,0.25 -0.167,-1.439 -0.277,-2.985 -0.325,-4.639 -0.051,-1.655 -0.076,-3.235 -0.076,-4.739 v -5.218 c 0,-1.504 0.025,-3.084 0.076,-4.739 0.048,-1.655 0.158,-3.149 0.325,-4.488 -0.769,0.068 -1.522,0.101 -2.256,0.101 -0.736,0 -1.488,-0.033 -2.257,-0.101 0.167,1.339 0.274,2.833 0.324,4.488 0.052,1.655 0.076,3.235 0.076,4.739 v 5.218 c 0,1.504 -0.024,3.084 -0.076,4.739"
             style="fill:#000000;fill-opacity:1;fill-rule:nonzero;stroke:none"
             id="path1670"
             inkscape:connector-curvature="0" />
        </g>
        <g
           id="g1672"
           transform="translate(236.1505,616.1201)">
          <path
             d="m 0,0 c -0.102,-1.271 -0.175,-2.517 -0.226,-3.737 -0.051,-1.221 -0.109,-2.449 -0.176,-3.686 0.368,0 1.055,0.008 2.057,0.027 1.005,0.015 2.09,0.056 3.259,0.124 -0.032,-0.1 -0.049,-0.284 -0.049,-0.551 v -0.502 -0.551 c 0,-0.235 0.017,-0.403 0.049,-0.502 C 4.48,-9.346 4.028,-9.32 3.56,-9.303 3.092,-9.286 2.592,-9.279 2.058,-9.279 h -2.46 c -0.032,-0.134 -0.073,-0.669 -0.124,-1.603 -0.051,-0.937 -0.093,-2.049 -0.127,-3.335 -0.034,-1.288 -0.058,-2.635 -0.075,-4.037 -0.017,-1.405 -0.024,-2.66 -0.024,-3.763 0,-0.935 0.024,-1.855 0.075,-2.757 0.051,-0.905 0.209,-1.715 0.476,-2.434 0.267,-0.718 0.669,-1.295 1.206,-1.73 0.534,-0.434 1.303,-0.65 2.305,-0.65 0.267,0 0.629,0.032 1.08,0.1 0.451,0.065 0.842,0.149 1.176,0.25 v -1.205 c -0.567,-0.099 -1.196,-0.225 -1.88,-0.376 -0.684,-0.15 -1.347,-0.225 -1.98,-0.225 -2.108,0 -3.661,0.519 -4.663,1.556 -1.006,1.035 -1.505,2.557 -1.505,4.563 0,0.903 0.014,1.881 0.048,2.934 0.035,1.053 0.076,2.206 0.127,3.46 0.048,1.255 0.092,2.64 0.126,4.164 0.031,1.519 0.049,3.215 0.049,5.088 h -1.605 c -0.269,0 -0.55,-0.007 -0.854,-0.024 -0.3,-0.017 -0.618,-0.043 -0.951,-0.075 0.032,0.201 0.059,0.392 0.076,0.577 0.014,0.182 0.024,0.376 0.024,0.575 0,0.168 -0.01,0.335 -0.024,0.503 -0.017,0.167 -0.044,0.335 -0.076,0.502 1.504,-0.102 2.609,-0.151 3.31,-0.151 -0.034,0.667 -0.059,1.504 -0.075,2.507 -0.018,1.005 -0.061,2.038 -0.127,3.111 L -0.252,0 Z"
             style="fill:#000000;fill-opacity:1;fill-rule:nonzero;stroke:none"
             id="path1674"
             inkscape:connector-curvature="0" />
        </g>
        <g
           id="g1676"
           transform="translate(254.9099,590.1422)">
          <path
             d="m 0,0 c -0.922,-1.867 -0.958,-2.711 -2.058,-4.615 -0.369,0.902 -0.845,2.072 -1.429,3.511 -0.585,1.436 -1.214,2.951 -1.881,4.54 -0.669,1.587 -1.353,3.208 -2.057,4.862 -0.702,1.657 -1.361,3.211 -1.98,4.667 -0.619,1.453 -1.163,2.732 -1.631,3.835 -0.468,1.102 -0.82,1.922 -1.053,2.459 0.435,-0.068 0.835,-0.127 1.203,-0.178 0.369,-0.05 0.736,-0.075 1.104,-0.075 0.369,0 0.736,0.025 1.104,0.075 0.367,0.051 0.77,0.11 1.204,0.178 1.036,-3.21 2.189,-6.386 3.46,-9.531 C -2.744,6.585 -1.407,3.343 0,0"
             style="fill:#000000;fill-opacity:1;fill-rule:nonzero;stroke:none"
             id="path1678"
             inkscape:connector-curvature="0" />
        </g>
      </g>
      <g
         id="g1682"
         transform="matrix(0.35277777,0,0,-0.35277777,-436.91742,145.05135)">
        <g
           id="g1688">
          <g
             id="g1690">
            <path
               d="m 248.861,560.115 c 2.597,0.049 5.194,0.097 7.791,0.147 v 0 c 2.961,32.918 14.823,58.959 43.659,71.883 v 0 c -0.116,0.349 -0.232,0.698 -0.349,1.047 v 0 c -33.246,-12.845 -44.943,-40.994 -51.101,-73.077"
               style="fill:url(#radialGradient1700);stroke:none"
               id="path1702"
               inkscape:connector-curvature="0" />
          </g>
        </g>
      </g>
    </g>
  </g>
</svg>
